HIERARCHY
ROOT Hips
{
	OFFSET 0.000000 100.481300 0.000000
	CHANNELS 6 Xposition Yposition Zposition Xrotation Yrotation Zrotation 
	JOINT Spine
	{
		OFFSET -0.279200 12.230698 -2.892100
		CHANNELS 3 Xrotation Yrotation Zrotation
		JOINT Spine1
		{
			OFFSET -0.232667 10.192268 -1.242267
			CHANNELS 3 Xrotation Yrotation Zrotation
			JOINT Spine1_split
			{
				OFFSET -0.232667 10.192268 -1.242267
				CHANNELS 3 Xrotation Yrotation Zrotation
				JOINT Spine2
				{
					OFFSET -0.232667 10.192268 -1.242267
					CHANNELS 3 Xrotation Yrotation Zrotation
					JOINT Neck
					{
						OFFSET -0.418800 17.814194 8.416900
						CHANNELS 3 Xrotation Yrotation Zrotation
						JOINT Head
						{
							OFFSET 0.000000 7.031097 3.806800
							CHANNELS 3 Xrotation Yrotation Zrotation
							JOINT HeadTop_End
							{
								OFFSET 0.000000 24.646606 12.978600
								CHANNELS 3 Xrotation Yrotation Zrotation
								End Site
								{
									OFFSET 0.000000 0.000000 0.000000
								}
							}
						}
					}
					JOINT LeftShoulder
					{
						OFFSET 8.476499 7.247704 -3.868750
						CHANNELS 3 Xrotation Yrotation Zrotation
						JOINT LeftShoulder_split
						{
							OFFSET 8.476499 7.247704 -3.868750
							CHANNELS 3 Xrotation Yrotation Zrotation
							JOINT LeftArm
							{
								OFFSET 9.308998 -2.777710 0.208600
								CHANNELS 3 Xrotation Yrotation Zrotation
								JOINT LeftForeArm
								{
									OFFSET 29.972298 0.000000 0.000000
									CHANNELS 3 Xrotation Yrotation Zrotation
									JOINT LeftHand
									{
										OFFSET 26.026505 0.000000 0.000000
										CHANNELS 3 Xrotation Yrotation Zrotation
										JOINT LeftHandThumb1
										{
											OFFSET 12.240501 -7.147949 9.207150
											CHANNELS 3 Xrotation Yrotation Zrotation
											JOINT LeftHandThumb2
											{
												OFFSET 4.138618 -2.389435 2.389433
												CHANNELS 3 Xrotation Yrotation Zrotation
												JOINT LeftHandThumb3
												{
													OFFSET 2.726913 -1.574387 1.574386
													CHANNELS 3 Xrotation Yrotation Zrotation
													JOINT LeftHandThumb4
													{
														OFFSET 3.941010 -2.275345 2.275342
														CHANNELS 3 Xrotation Yrotation Zrotation
														End Site
														{
															OFFSET 0.000000 0.000000 0.000000
														}
													}
												}
											}
										}
										JOINT LeftHandIndex1
										{
											OFFSET 24.424698 -1.985611 5.953459
											CHANNELS 3 Xrotation Yrotation Zrotation
											JOINT LeftHandIndex2
											{
												OFFSET 6.426697 0.000000 0.000000
												CHANNELS 3 Xrotation Yrotation Zrotation
												JOINT LeftHandIndex3
												{
													OFFSET 5.337898 0.000000 0.000000
													CHANNELS 3 Xrotation Yrotation Zrotation
													JOINT LeftHandIndex4
													{
														OFFSET 4.409401 0.000000 0.000000
														CHANNELS 3 Xrotation Yrotation Zrotation
														End Site
														{
															OFFSET 0.000000 0.000000 0.000000
														}
													}
												}
											}
										}
										JOINT LeftHandMiddle1
										{
											OFFSET 23.810104 0.000000 0.000000
											CHANNELS 3 Xrotation Yrotation Zrotation
											JOINT LeftHandMiddle2
											{
												OFFSET 7.176498 0.000000 0.000000
												CHANNELS 3 Xrotation Yrotation Zrotation
												JOINT LeftHandMiddle3
												{
													OFFSET 6.774902 0.000000 0.000000
													CHANNELS 3 Xrotation Yrotation Zrotation
													JOINT LeftHandMiddle4
													{
														OFFSET 5.403328 0.000000 0.000000
														CHANNELS 3 Xrotation Yrotation Zrotation
														End Site
														{
															OFFSET 0.000000 0.000000 0.000000
														}
													}
												}
											}
										}
										JOINT LeftHandRing1
										{
											OFFSET 22.908401 -0.839279 -6.020567
											CHANNELS 3 Xrotation Yrotation Zrotation
											JOINT LeftHandRing2
											{
												OFFSET 6.337502 0.000000 0.000000
												CHANNELS 3 Xrotation Yrotation Zrotation
												JOINT LeftHandRing3
												{
													OFFSET 5.779297 0.000000 0.000000
													CHANNELS 3 Xrotation Yrotation Zrotation
													JOINT LeftHandRing4
													{
														OFFSET 4.965698 0.000000 0.000000
														CHANNELS 3 Xrotation Yrotation Zrotation
														End Site
														{
															OFFSET 0.000000 0.000000 0.000000
														}
													}
												}
											}
										}
										JOINT LeftHandPinky1
										{
											OFFSET 20.037003 -1.530319 -10.950146
											CHANNELS 3 Xrotation Yrotation Zrotation
											JOINT LeftHandPinky2
											{
												OFFSET 5.254700 0.000000 0.000000
												CHANNELS 3 Xrotation Yrotation Zrotation
												JOINT LeftHandPinky3
												{
													OFFSET 4.810204 0.000000 0.000000
													CHANNELS 3 Xrotation Yrotation Zrotation
													JOINT LeftHandPinky4
													{
														OFFSET 3.647202 0.000000 0.000000
														CHANNELS 3 Xrotation Yrotation Zrotation
														End Site
														{
															OFFSET 0.000000 0.000000 0.000000
														}
													}
												}
											}
										}
									}
								}
							}
						}
					}
					JOINT RightShoulder
					{
						OFFSET -7.570500 7.247704 -3.868750
						CHANNELS 3 Xrotation Yrotation Zrotation
						JOINT RightShoulder_split
						{
							OFFSET -7.570500 7.247704 -3.868750
							CHANNELS 3 Xrotation Yrotation Zrotation
							JOINT RightArm
							{
								OFFSET -9.308998 -2.777710 0.208500
								CHANNELS 3 Xrotation Yrotation Zrotation
								JOINT RightForeArm
								{
									OFFSET -29.972300 0.000000 0.000000
									CHANNELS 3 Xrotation Yrotation Zrotation
									JOINT RightHand
									{
										OFFSET -26.026505 0.000000 0.000000
										CHANNELS 3 Xrotation Yrotation Zrotation
										JOINT RightHandThumb1
										{
											OFFSET -12.240601 -7.148026 9.207092
											CHANNELS 3 Xrotation Yrotation Zrotation
											JOINT RightHandThumb2
											{
												OFFSET -4.138618 -2.389435 2.389433
												CHANNELS 3 Xrotation Yrotation Zrotation
												JOINT RightHandThumb3
												{
													OFFSET -2.726974 -1.574417 1.574421
													CHANNELS 3 Xrotation Yrotation Zrotation
													JOINT RightHandThumb4
													{
														OFFSET -3.941010 -2.275345 2.275343
														CHANNELS 3 Xrotation Yrotation Zrotation
														End Site
														{
															OFFSET 0.000000 0.000000 0.000000
														}
													}
												}
											}
										}
										JOINT RightHandIndex1
										{
											OFFSET -24.424698 -1.985657 5.953444
											CHANNELS 3 Xrotation Yrotation Zrotation
											JOINT RightHandIndex2
											{
												OFFSET -6.426697 0.000000 0.000000
												CHANNELS 3 Xrotation Yrotation Zrotation
												JOINT RightHandIndex3
												{
													OFFSET -5.337898 0.000000 0.000000
													CHANNELS 3 Xrotation Yrotation Zrotation
													JOINT RightHandIndex4
													{
														OFFSET -4.409401 0.000000 0.000000
														CHANNELS 3 Xrotation Yrotation Zrotation
														End Site
														{
															OFFSET 0.000000 0.000000 0.000000
														}
													}
												}
											}
										}
										JOINT RightHandMiddle1
										{
											OFFSET -23.810097 0.000000 0.000000
											CHANNELS 3 Xrotation Yrotation Zrotation
											JOINT RightHandMiddle2
											{
												OFFSET -7.176498 0.000000 0.000000
												CHANNELS 3 Xrotation Yrotation Zrotation
												JOINT RightHandMiddle3
												{
													OFFSET -6.774902 0.000000 0.000000
													CHANNELS 3 Xrotation Yrotation Zrotation
													JOINT RightHandMiddle4
													{
														OFFSET -5.403328 0.000000 0.000000
														CHANNELS 3 Xrotation Yrotation Zrotation
														End Site
														{
															OFFSET 0.000000 0.000000 0.000000
														}
													}
												}
											}
										}
										JOINT RightHandRing1
										{
											OFFSET -22.908302 -0.839325 -6.020576
											CHANNELS 3 Xrotation Yrotation Zrotation
											JOINT RightHandRing2
											{
												OFFSET -6.337502 0.000000 0.000000
												CHANNELS 3 Xrotation Yrotation Zrotation
												JOINT RightHandRing3
												{
													OFFSET -5.779297 0.000000 0.000000
													CHANNELS 3 Xrotation Yrotation Zrotation
													JOINT RightHandRing4
													{
														OFFSET -4.965698 0.000000 0.000000
														CHANNELS 3 Xrotation Yrotation Zrotation
														End Site
														{
															OFFSET 0.000000 0.000000 0.000000
														}
													}
												}
											}
										}
										JOINT RightHandPinky1
										{
											OFFSET -20.037003 -1.530334 -10.950259
											CHANNELS 3 Xrotation Yrotation Zrotation
											JOINT RightHandPinky2
											{
												OFFSET -5.254700 0.000000 0.000000
												CHANNELS 3 Xrotation Yrotation Zrotation
												JOINT RightHandPinky3
												{
													OFFSET -4.810204 0.000000 0.000000
													CHANNELS 3 Xrotation Yrotation Zrotation
													JOINT RightHandPinky4
													{
														OFFSET -3.647202 0.000000 0.000000
														CHANNELS 3 Xrotation Yrotation Zrotation
														End Site
														{
															OFFSET 0.000000 0.000000 0.000000
														}
													}
												}
											}
										}
									}
								}
							}
						}
					}
				}
			}
		}
	}
	JOINT LeftUpLeg
	{
		OFFSET 15.427100 -6.655098 0.678600
		CHANNELS 3 Xrotation Yrotation Zrotation
		JOINT LeftLeg
		{
			OFFSET 4.081073 -39.591068 13.024000
			CHANNELS 3 Xrotation Yrotation Zrotation
			JOINT LeftFoot
			{
				OFFSET -4.081074 -37.707932 -15.979700
				CHANNELS 3 Xrotation Yrotation Zrotation
				JOINT LeftToeBase
				{
					OFFSET 5.346399 -15.068900 20.645000
					CHANNELS 3 Xrotation Yrotation Zrotation
					JOINT LeftToe_End
					{
						OFFSET 2.754700 0.931300 11.300900
						CHANNELS 3 Xrotation Yrotation Zrotation
						End Site
						{
							OFFSET 0.000000 0.000000 0.000000
						}
					}
				}
			}
		}
	}
	JOINT RightUpLeg
	{
		OFFSET -15.569500 -6.655098 0.678600
		CHANNELS 3 Xrotation Yrotation Zrotation
		JOINT RightLeg
		{
			OFFSET -4.081825 -39.591045 13.023800
			CHANNELS 3 Xrotation Yrotation Zrotation
			JOINT RightFoot
			{
				OFFSET 4.081824 -37.707954 -15.979600
				CHANNELS 3 Xrotation Yrotation Zrotation
				JOINT RightToeBase
				{
					OFFSET -5.346400 -15.068900 20.645000
					CHANNELS 3 Xrotation Yrotation Zrotation
					JOINT RightToe_End
					{
						OFFSET -2.754700 0.931300 11.300900
						CHANNELS 3 Xrotation Yrotation Zrotation
						End Site
						{
							OFFSET 0.000000 0.000000 0.000000
						}
					}
				}
			}
		}
	}
}
MOTION
Frames: 5
Frame Time: 0.016667
-0.706230 79.895378 -4.297713 5.471227 3.248674 -5.410148 4.873102 1.211074 3.800295 9.857120 2.800249 1.722123 0.000000 0.000000 0.000000 9.857132 2.800253 1.722121 -7.496579 -3.144983 -0.434787 -14.101449 -7.360288 -5.253898 -0.000001 0.000000 -0.000000 1.084050 -1.226538 -9.108710 0.000000 0.000000 0.000000 21.951236 16.129903 -69.744612 5.201756 -103.989883 -6.123515 11.822911 -20.243287 2.841640 -3.690104 -7.086975 -6.632096 5.385691 13.659120 2.745842 -0.000001 0.000015 -0.000005 -0.000001 -0.000001 0.000000 -4.456517 -5.493664 -78.091855 -6.126703 -4.186017 -86.100306 0.000004 0.000003 0.000006 0.000002 0.000003 -0.000002 -4.795455 -3.750246 -81.576931 -5.123587 -5.382119 -79.877573 -0.000009 0.000004 0.000006 -0.000000 0.000001 0.000001 -3.664368 4.578272 -85.637417 -3.073175 -4.292437 -82.602969 0.000002 0.000003 0.000002 0.000002 0.000003 -0.000001 -3.281162 10.951576 -91.300580 -1.701518 -6.201358 -92.126596 0.000001 -0.000001 -0.000000 0.000000 0.000001 0.000000 0.776471 6.054086 9.529804 0.000000 0.000000 0.000000 5.506721 -10.523613 55.529271 -70.895779 86.710542 75.612824 -0.541029 5.793761 2.436036 1.190239 2.334522 7.237258 4.255920 -11.098842 -2.566613 0.000005 -0.000004 -0.000012 -0.000003 0.000000 -0.000002 3.425536 2.971814 72.847150 -5.590526 2.960005 92.129027 -0.000003 0.000001 0.000001 0.000001 0.000001 0.000001 -2.182839 2.038029 78.119087 -4.717969 4.324971 85.933096 -0.000002 -0.000013 -0.000003 -0.000001 0.000001 0.000000 -3.544746 -3.138601 85.503368 -4.845229 5.681177 88.623344 0.000001 -0.000007 -0.000000 0.000000 -0.000001 -0.000001 -4.116717 -7.840877 98.141513 -5.448567 9.316749 98.222341 0.000009 0.000005 0.000008 -0.000002 -0.000001 -0.000002 -39.241496 2.161056 1.724863 95.160497 12.132310 2.390883 -10.136178 -1.354539 5.720276 -0.898546 -2.887880 -6.627551 0.000001 0.000000 -0.000000 -20.674168 -7.771424 8.318008 52.050932 -1.363308 -2.669106 -28.873252 0.880197 -2.166802 -10.356513 12.980915 -1.406486 -0.000000 0.000001 -0.000000 
1.051981 80.992432 8.676898 3.089793 0.418838 -2.204101 4.725676 1.905419 3.070148 9.626593 3.123980 0.274438 0.000000 0.000000 0.000000 9.626594 3.123981 0.274439 -2.454933 -3.325482 -1.544304 -13.137935 -8.242272 -5.177376 0.000000 0.000000 0.000000 1.017765 -3.352018 -7.689897 0.000000 0.000000 0.000000 20.366302 21.388599 -69.829464 3.146558 -98.519823 -7.265732 11.665532 -20.398030 3.541824 -3.674530 -7.031687 -6.573685 5.390398 13.668747 2.745662 -0.000002 0.000013 -0.000007 0.000001 -0.000001 -0.000001 -4.415738 -5.486248 -77.672597 -6.076172 -4.184105 -85.682230 0.000005 0.000005 0.000008 0.000002 -0.000001 -0.000001 -4.761760 -3.747123 -81.225060 -5.085651 -5.375472 -79.524787 -0.000011 0.000004 0.000007 -0.000001 0.000004 0.000000 -3.642436 4.581574 -85.331807 -3.053934 -4.287317 -82.294040 0.000001 0.000003 -0.000000 0.000003 0.000000 -0.000001 -3.262911 10.951603 -90.969411 -1.695740 -6.201274 -91.857698 0.000001 -0.000001 0.000000 0.000000 -0.000002 -0.000001 0.471248 6.581697 7.077382 0.000000 0.000000 0.000000 2.677230 -8.531777 52.506321 -124.821243 83.187394 129.906359 0.046008 8.442197 -4.547155 1.063727 2.389919 7.088548 4.210544 -10.996074 -2.558742 0.000004 -0.000003 -0.000013 0.000001 0.000003 -0.000001 3.285703 2.958056 72.384487 -5.532252 2.967167 91.535047 -0.000001 0.000002 0.000000 0.000000 -0.000001 -0.000000 -2.157716 2.014422 77.565377 -4.667178 4.322076 85.362202 -0.000003 -0.000011 -0.000001 0.000002 -0.000001 -0.000000 -3.433793 -3.143521 84.861364 -4.797958 5.679360 88.073992 0.000001 -0.000009 0.000000 0.000000 0.000000 0.000001 -3.951821 -7.817784 97.410765 -5.399221 9.319788 97.590877 0.000010 0.000004 0.000008 -0.000000 0.000002 0.000001 -51.027551 0.094583 2.600511 90.207128 11.944634 2.328391 1.885763 -1.474096 7.891142 -3.283832 -2.438946 -5.653322 0.000004 -0.000000 -0.000000 -8.459016 -6.279187 4.377590 51.766557 1.102146 -3.749201 -28.398613 0.323291 -1.062619 -19.656718 13.502020 0.910697 -0.000000 0.000001 0.000000 
2.382967 81.570969 21.162991 0.146069 -2.188258 1.444596 4.653115 2.393190 1.900825 9.488547 3.163840 -0.986326 0.000000 0.000000 0.000000 9.488545 3.163836 -0.986325 2.602476 -3.411512 -2.577497 -12.199131 -8.439066 -5.062700 -0.000001 -0.000000 0.000000 0.950485 -5.646695 -7.066024 0.000000 0.000000 0.000000 19.644679 26.553699 -68.303394 -44.943440 -91.993298 -56.509536 12.433757 -20.263196 4.153237 -3.631302 -6.892558 -6.427412 5.402857 13.694244 2.745130 -0.000004 0.000010 -0.000006 0.000001 -0.000001 -0.000001 -4.314017 -5.463048 -76.623036 -5.949271 -4.173856 -84.635715 -0.000000 0.000003 0.000006 -0.000000 0.000001 0.000001 -4.676704 -3.733402 -80.346302 -4.991180 -5.357312 -78.643795 -0.000010 0.000003 0.000007 0.000000 -0.000003 0.000001 -3.588961 4.586304 -84.569988 -3.007775 -4.280711 -81.524052 -0.000003 -0.000002 0.000000 0.000001 0.000003 0.000000 -3.217743 10.951106 -90.145062 -1.681570 -6.201971 -91.189296 0.000001 0.000001 0.000000 0.000001 -0.000003 -0.000000 0.215434 7.052321 4.417728 0.000000 0.000000 0.000000 -0.696321 -7.601966 49.506615 -136.723735 80.118413 141.096176 -1.682964 8.719117 -8.099244 0.735801 2.516792 6.699290 4.098470 -10.742297 -2.538915 0.000003 -0.000003 -0.000014 0.000002 0.000002 -0.000003 2.946271 2.950515 71.140628 -5.372446 2.971067 89.955237 -0.000001 -0.000000 0.000001 0.000001 0.000000 -0.000000 -2.097276 1.952042 76.105369 -4.531262 4.309436 83.837546 -0.000002 -0.000012 -0.000003 0.000001 -0.000000 -0.000000 -3.153759 -3.176327 83.187203 -4.671717 5.673723 86.598404 0.000001 -0.000008 -0.000001 0.000001 -0.000001 -0.000000 -3.529626 -7.793270 95.484214 -5.273493 9.333570 95.921565 0.000009 0.000002 0.000009 -0.000000 -0.000001 -0.000002 -58.043801 -2.014184 1.989546 83.490252 12.417408 2.309502 10.120486 -1.217607 8.348241 -4.875790 -3.545087 -3.061961 -0.000000 -0.000000 0.000000 0.940273 -5.198539 -1.697859 53.107299 2.882073 -4.022261 -17.457559 -0.565643 0.942386 -41.693155 9.927764 8.759959 -0.000000 -0.000000 -0.000000 
2.903320 81.154381 32.323780 -3.132604 -5.291811 4.981272 4.854193 2.875572 0.174390 9.838374 3.169747 -2.175855 0.000000 0.000000 0.000000 9.838371 3.169749 -2.175856 7.329082 -3.470430 -3.521875 -11.394774 -8.119054 -4.996078 -0.000001 0.000000 0.000000 0.873609 -7.727235 -6.705415 0.000000 0.000000 0.000000 19.528662 31.328216 -66.134078 -131.666759 -98.266738 -145.356070 13.514970 -20.043436 4.561842 -3.569439 -6.695144 -6.222054 5.420912 13.731105 2.744340 -0.000002 0.000017 -0.000007 -0.000001 0.000001 -0.000001 -4.171562 -5.426557 -75.144170 -5.770801 -4.154595 -83.161050 0.000003 0.000004 0.000007 0.000000 -0.000001 0.000001 -4.557147 -3.710887 -79.109321 -4.858675 -5.329163 -77.403631 -0.000009 0.000003 0.000007 -0.000000 0.000001 0.000001 -3.514130 4.593303 -83.498462 -2.943354 -4.271650 -80.441091 -0.000000 -0.000000 0.000004 0.000003 0.000000 -0.000000 -3.154241 10.951191 -88.986218 -1.661707 -6.202856 -90.250247 -0.000002 -0.000002 0.000001 0.000000 -0.000003 -0.000000 -0.010816 7.405824 1.517426 0.000000 0.000000 0.000000 -3.959894 -7.479180 46.796679 -143.758256 76.454795 146.944813 -4.558742 7.638983 -9.646810 0.277068 2.694356 6.152288 3.942597 -10.389837 -2.510527 -0.000002 -0.000005 -0.000012 -0.000002 0.000000 -0.000001 2.483107 2.965521 69.371417 -5.146216 2.966095 87.716739 -0.000003 -0.000001 -0.000000 -0.000001 0.000000 0.000001 -2.014728 1.861865 74.039722 -4.339290 4.284719 81.674992 -0.000002 -0.000012 -0.000001 0.000000 0.000000 0.000001 -2.765293 -3.243732 80.825119 -4.492707 5.660375 84.502882 -0.000002 -0.000007 -0.000000 -0.000000 0.000000 0.000000 -2.938747 -7.797509 92.760888 -5.095206 9.348769 93.559289 0.000009 0.000002 0.000010 -0.000000 0.000001 -0.000000 -61.753120 -4.173091 1.580766 75.981784 14.130336 2.667699 14.191064 -0.922326 7.285817 -5.330130 -5.944702 0.652711 0.000000 -0.000001 -0.000000 3.087008 -1.620887 -8.636973 56.091382 3.475612 -4.324338 9.542584 -0.422725 1.007063 -69.136582 0.903985 9.806209 -0.000000 -0.000000 0.000000 
2.797026 79.966728 42.501305 -6.270850 -9.319041 7.859723 5.223606 3.330185 -1.577272 10.507890 3.279739 -3.461314 0.000000 0.000000 0.000000 10.507897 3.279740 -3.461316 11.415384 -3.410769 -4.364174 -10.844141 -7.168178 -5.071504 0.000002 -0.000000 -0.000001 0.774283 -9.387639 -6.438875 0.000000 0.000000 0.000000 20.205192 35.514597 -63.760096 -135.636574 -107.342618 -152.241502 14.696533 -19.840094 4.688457 -3.486559 -6.430042 -5.950327 5.443113 13.782354 2.747489 0.000000 0.000013 -0.000005 -0.000002 0.000001 -0.000000 -3.983692 -5.371881 -73.176338 -5.534226 -4.121313 -81.198634 0.000003 0.000007 0.000009 -0.000000 0.000000 -0.000002 -4.399180 -3.677767 -77.464952 -4.683585 -5.287251 -75.755151 -0.000004 0.000003 0.000005 0.000003 0.000000 0.000003 -3.414853 4.605319 -82.075344 -2.857877 -4.256737 -79.002763 0.000003 0.000000 0.000001 0.000001 -0.000005 -0.000001 -3.069990 10.953093 -87.448012 -1.635307 -6.203599 -89.004441 -0.000001 0.000002 0.000001 0.000001 -0.000003 -0.000002 -0.199671 7.579317 -1.593903 0.000000 0.000000 0.000000 -6.612555 -8.410415 44.561998 -147.787740 71.668376 149.583383 -7.996785 5.401388 -9.701846 -0.322394 2.931765 5.434808 3.738945 -9.930193 -2.472045 0.000001 -0.000005 -0.000011 -0.000001 -0.000000 -0.000001 1.894201 3.027123 67.020091 -4.848677 2.943802 84.752484 -0.000004 -0.000000 0.000002 0.000001 -0.000001 -0.000000 -1.909631 1.739094 71.305864 -4.086906 4.240346 78.809257 -0.000002 -0.000013 -0.000001 0.000000 0.000001 0.000000 -2.262869 -3.367172 77.705594 -4.256154 5.632851 81.723473 0.000002 -0.000006 -0.000001 0.000001 0.000000 -0.000001 -2.167074 -7.866915 89.161535 -4.857849 9.359207 90.433528 0.000009 0.000003 0.000010 -0.000001 -0.000000 -0.000000 -61.771104 -5.887823 2.508203 67.439082 17.181790 3.333245 14.247906 -0.634333 6.074755 -4.770367 -8.955201 4.908117 -0.000001 0.000000 0.000000 6.762019 2.557320 -13.007860 55.290118 5.679105 -3.507799 36.108420 -0.086884 -4.547017 -82.337855 -4.202445 8.236894 0.000000 -0.000000 0.000000 
